<svg id="Lager_1" data-name="Lager 1" xmlns="http://www.w3.org/2000/svg" viewBox="0 0 286.38 77.13"><defs><style>.cls-1,.cls-2,.cls-3{fill:none;stroke:#d45d47;stroke-linecap:round;stroke-miterlimit:10;}.cls-1{stroke-width:3.39px;}.cls-2{stroke-width:2.54px;}.cls-3{stroke-width:3.1px;}.cls-4{fill:#1d1d1b;}</style></defs><title>logotyp</title><line class="cls-1" x1="125.34" y1="2.19" x2="126.52" y2="8.81"/><line class="cls-1" x1="105.83" y1="14.68" x2="111.35" y2="18.53"/><line class="cls-1" x1="100.43" y1="34.81" x2="107.05" y2="33.63"/><line class="cls-2" x1="115.48" y1="8.81" x2="118.04" y2="12.55"/><line class="cls-2" x1="103.15" y1="25.15" x2="107.62" y2="25.9"/><line class="cls-2" x1="136.72" y1="5.01" x2="135.62" y2="9.41"/><line class="cls-2" x1="153.96" y1="16.06" x2="150.02" y2="18.32"/><line class="cls-1" x1="160.02" y1="24.15" x2="153.4" y2="25.34"/><line class="cls-1" x1="147.97" y1="7.15" x2="144.12" y2="12.67"/><path class="cls-3" d="M113.82,35a17.12,17.12,0,0,1,33.7-6"/><path class="cls-4" d="M15.81,45.92c-2.29,0-2.29-1.08-2.29-1.08a.38.38,0,0,1,.42-.36c3,0,6.75-4.92,6.75-7.8,0-1.22-.65-2.1-2.36-2.1C13.48,34.58,9,41.17,9,45.52c0,4.53,9.6,4.23,9.6,9.58,0,4.85-8.16,7.53-12.39,7.53-2.91,0-6-.46-6-3.44,0-.92,1.15-2.39,1.7-2.39,1.22,0,.23,1.28,3.05,1.28,1.77,0,7.54-.79,7.54-3.31,0-2.89-9-4.39-9-9.34,0-7.84,9-13.64,15.31-13.64,5,0,6.88,1.74,6.88,4C25.64,40,19.38,45.92,15.81,45.92Z"/><path class="cls-4" d="M38.17,59.81c-1.84,0-1.94-1.47-1.94-3.11,0-.42-.16-.65-.55-.65-2.3,0-3.74,4-5.38,4-.72,0-1.24-.32-1.24-.78,0-1,.09-1.87.09-2.46,0-.26-.13-.46-.62-.46-2,0-2.85,3.34-5.14,3.34-.76,0-1.64-.49-1.64-1.08s1.18-2.32,1.18-4.72c0-.88-.3-1.11-.69-1.11l-1.67.36a1,1,0,0,1-1-1.08c0-1.31,1.48-3.31,5-3.31,2,0,2.23.72,2.23,1.18,0,.88-.42,1.77-.42,2.26,0,.23.09.36.36.36.75,0,2.39-1.57,3.77-1.57,1.21,0,1.41.75,1.41,1.47,0,.39-.07.79-.07,1.05s0,.33.16.33c.3,0,2.36-2.59,5.54-2.59,1.15,0,1.84.42,1.87,1.64,0,.59-.13,1.21-.13,1.9,0,.92.26,1.77,1.41,1.77.33,0,.92-.2,1.31-.2a.55.55,0,0,1,.56.62C42.53,58,40,59.81,38.17,59.81Z"/><path class="cls-4" d="M57.41,59.36a2.54,2.54,0,0,1-2.49-1.58.2.2,0,0,0-.2-.16c-.52,0-3.27,2.46-7.93,2.46-3.11,0-4.39-1.25-4.39-2.95,0-3.71,6.1-9.64,12.16-9.64,1.18,0,1.64.53,1.64,1.18a3.1,3.1,0,0,1-2.62,2.69c-2.63,0-6.69,3-6.69,4.39,0,.46.43.79,1.48.79,1.93,0,5.44-1.94,8.19-4.49a1.88,1.88,0,0,1,1.15-.56c.39,0,.68.26.68.95s-.26,1.8-.26,2.52.2,1,.85,1,1.61-.42,2.4-.46a.78.78,0,0,1,.88.86C62.26,57.46,59.61,59.36,57.41,59.36ZM51.68,46.64c-1.25,0-2.3-.59-2.3-1.87,0-2.06,2.36-3.57,4.2-3.57a2.18,2.18,0,0,1,2.23,2.29C55.81,45.39,53.54,46.64,51.68,46.64Zm1.67-4c-.53,0-2.17.4-2.17,1.9,0,.4.27.56.66.56,1.21,0,2.29-.85,2.29-1.64A.8.8,0,0,0,53.35,42.67Z"/><path class="cls-4" d="M67.61,49.82A20.76,20.76,0,0,0,67.08,54c0,2,.53,3.28,1.91,3.28.81,0,1.21-.42,2.13-.42.55,0,.68.22.68.81,0,1.55-2.52,2.73-4.39,2.73-3.57,0-5-2.76-5-6.49a17.8,17.8,0,0,1,.33-3.38h-.27c-1,0-1.31-.56-1.31-1a.68.68,0,0,1,.66-.75l1.37-.2C65.05,41.46,70,33.89,74.79,33.89c3.34,0,4.78,1.61,4.78,3.83C79.57,41.76,74.82,47.75,67.61,49.82ZM73.21,37c-1,0-3.37,4.92-4.85,9.9,4.49-2.23,6.16-5.74,6.16-7.9C74.52,37.79,74,37,73.21,37Z"/><path class="cls-4" d="M87,59.36a2.56,2.56,0,0,1-2.49-1.58.2.2,0,0,0-.19-.16c-.53,0-3.28,2.46-7.94,2.46-3.11,0-4.39-1.25-4.39-2.95,0-3.71,6.1-9.64,12.16-9.64,1.18,0,1.64.53,1.64,1.18a3.1,3.1,0,0,1-2.62,2.69c-2.62,0-6.69,3-6.69,4.39,0,.46.43.79,1.48.79,1.93,0,5.44-1.94,8.19-4.49a1.88,1.88,0,0,1,1.15-.56c.39,0,.69.26.69.95s-.27,1.8-.27,2.52.2,1,.86,1,1.6-.42,2.39-.46a.78.78,0,0,1,.88.86C91.86,57.46,89.21,59.36,87,59.36Z"/><path class="cls-4" d="M103.37,59.59c-2,0-2.13-1.25-2.13-3.68,0-.45-.1-.78-.69-.78s-4.65,3.67-5.11,4.06a2,2,0,0,1-1.28.46c-.65,0-1.54-.33-1.54-1.11,0-1,1.48-3.67,1.48-5.12a1.19,1.19,0,0,0-1.35-1.24c-.75,0-1.5.52-2,.52s-.88-.62-.88-1.21c0,0,0-2.82,4.72-2.82,2,0,2.59.82,2.59,1.77a16.27,16.27,0,0,1-.69,2.82.27.27,0,0,0,.26.29c.52,0,4.29-3,6.72-3,1.15,0,2.26.29,2.26,1.57s-.59,1.87-.59,3c0,.36.07,1,.85,1,1.38,0,3.48-1.34,4.13-1.34.43,0,.66.36.66.82C110.75,57.19,106.45,59.59,103.37,59.59Z"/><path class="cls-4" d="M126.58,53.06a3,3,0,0,0-.1.76,2.15,2.15,0,0,0,2.13,2.42c.86,0,1.38-.52,1.71-.52a.75.75,0,0,1,.82.85c0,2-2.33,3.31-4.26,3.31a3.52,3.52,0,0,1-3.44-2.49,18.63,18.63,0,0,1-9.25,2.92c-2.52,0-4.49-.92-4.49-3.41,0-3.51,5.44-8.56,10.26-8.56,1.44,0,2,.72,2,1.51a2.26,2.26,0,0,1-1.9,2.13c-3.57.07-6.23,2.53-6.23,4.07,0,.68.53,1.18,1.8,1.18,3,0,5.58-2.13,7.12-3.81V53c0-6.07,2.59-14,2.59-14,1-2.1,2.36-3.35,3.77-3.35,1.93,0,2.19,1.64,2.19,3.41C131.3,42.74,127,51.49,126.58,53.06Z"/><path class="cls-4" d="M136,59.91c-2.65,0-3.86-1.27-3.86-2.23s1.4-3,2.55-3c.89,0,.85,1.54,3,1.54,2,0,2.89-1.24,2.89-2.49A2.42,2.42,0,0,0,138,51.33c-.72,0-6.23,3.4-6.56,3.4-.78,0-1.27-1.14-1.27-1.57,0-1.54,7.4-5.54,9.47-5.54,2.82,0,4.42,2.49,4.42,5.25C144,56.21,141.63,59.91,136,59.91Z"/><path class="cls-4" d="M175.39,46.15c-.78,0-3.08-.59-3.08-2.26,0-.2.07-.36.3-.36a7,7,0,0,0,1,.19c2.72,0,7.8-2.85,7.8-6.06,0-1.48-1.28-1.8-2.69-1.8-6.92,0-14.69,10.25-14.69,16.55,0,2.78,1.51,4.82,5.35,4.82s5.83-2.17,7.6-2.17c1.12,0,3,1.15,3,2.23s-5.58,3.8-11,3.8c-7.25,0-10.33-3.67-10.33-8.35,0-8.17,9.31-19.38,21.7-19.38,4.85,0,6.72,1.28,6.72,3.64C187.13,40.77,181.26,46.05,175.39,46.15Z"/><path class="cls-4" d="M196.15,59.36a2.54,2.54,0,0,1-2.49-1.58.21.21,0,0,0-.2-.16c-.53,0-3.28,2.46-7.93,2.46-3.12,0-4.39-1.25-4.39-2.95,0-3.71,6.09-9.64,12.15-9.64,1.19,0,1.64.53,1.64,1.18a3.09,3.09,0,0,1-2.62,2.69c-2.62,0-6.68,3-6.68,4.39,0,.46.42.79,1.47.79,1.93,0,5.44-1.94,8.19-4.49a1.91,1.91,0,0,1,1.15-.56c.39,0,.69.26.69.95s-.26,1.8-.26,2.52.19,1,.85,1,1.61-.42,2.39-.46a.79.79,0,0,1,.89.86C201,57.46,198.34,59.36,196.15,59.36Z"/><path class="cls-4" d="M217.49,59.81c-1.84,0-1.94-1.47-1.94-3.11,0-.42-.16-.65-.55-.65-2.3,0-3.74,4-5.38,4-.72,0-1.24-.32-1.24-.78,0-1,.09-1.87.09-2.46,0-.26-.13-.46-.62-.46-2,0-2.85,3.34-5.14,3.34-.76,0-1.64-.49-1.64-1.08s1.18-2.32,1.18-4.72c0-.88-.3-1.11-.69-1.11l-1.67.36a1,1,0,0,1-1-1.08c0-1.31,1.48-3.31,4.95-3.31,2,0,2.23.72,2.23,1.18,0,.88-.42,1.77-.42,2.26,0,.23.09.36.36.36.75,0,2.39-1.57,3.77-1.57,1.21,0,1.4.75,1.4,1.47,0,.39-.06.79-.06,1.05s0,.33.16.33c.3,0,2.36-2.59,5.54-2.59,1.15,0,1.84.42,1.87,1.64,0,.59-.13,1.21-.13,1.9,0,.92.26,1.77,1.41,1.77.33,0,.92-.2,1.31-.2a.55.55,0,0,1,.56.62C221.85,58,219.29,59.81,217.49,59.81Z"/><path class="cls-4" d="M232.21,59.65c-1.48,0-3.8-.85-3.8-2.49a.65.65,0,0,1,.49-.72c.59,0,1.34.16,2.23.16,2.42,0,4.36-1.64,4.36-2.82,0-.65-.63-1.18-2.1-1.18a8.77,8.77,0,0,0-5.28,1.94c-.33,4.23-2.78,20.35-9.86,20.35-1.84,0-2.59-1.47-2.59-3.08,0-2.82,3.27-10.55,7.93-16.39,0-1.05,0-2.06,0-3,0-2.49-.36-2.1-.36-3.38,0-.72,2-1.67,3.64-1.67a1.22,1.22,0,0,1,1.37,1.38c0,.42,0,1.18,0,2a10.57,10.57,0,0,1,6.33-2.49c3.18,0,4.52,1.93,4.52,4.22C239.09,55.72,236.34,59.65,232.21,59.65ZM219.65,70.53c0,.43.17.82.4.82s.39-.19.59-.62a31.79,31.79,0,0,0,2.62-10.49A28.94,28.94,0,0,0,219.65,70.53Z"/><path class="cls-4" d="M243.16,60.11c-1.94,0-3.77-1-3.77-3.54,0-1.74.62-5.57,1.57-7a11.33,11.33,0,0,1,3.38-.92.61.61,0,0,1,.69.59c0,.52-1.38,3.47-1.38,4.82s.56,2.29,1.9,2.29,1.08-.69,2-.69a1,1,0,0,1,1.09.76C248.67,58.41,245.71,60.11,243.16,60.11Zm-.23-14.65s-1.21,0-1.21-.75a16,16,0,0,1,1.14-3.28,1.8,1.8,0,0,1,1.74-.82c.69,0,2.07.1,2.07,1A3.85,3.85,0,0,1,242.93,45.46Z"/><path class="cls-4" d="M260.89,59.59c-2,0-2.13-1.25-2.13-3.68,0-.45-.1-.78-.69-.78s-4.65,3.67-5.11,4.06a2,2,0,0,1-1.28.46c-.65,0-1.54-.33-1.54-1.11,0-1,1.48-3.67,1.48-5.12a1.19,1.19,0,0,0-1.35-1.24c-.75,0-1.5.52-2,.52s-.88-.62-.88-1.21c0,0,0-2.82,4.72-2.82,2,0,2.59.82,2.59,1.77a16.27,16.27,0,0,1-.69,2.82.27.27,0,0,0,.26.29c.52,0,4.29-3,6.72-3,1.15,0,2.26.29,2.26,1.57s-.59,1.87-.59,3c0,.36.07,1,.85,1,1.38,0,3.48-1.34,4.13-1.34.43,0,.66.36.66.82C268.27,57.19,264,59.59,260.89,59.59Z"/><path class="cls-4" d="M285.77,61.09c-.23,1.31-1.37,1.41-2.59,1.71-.82.19-1.67.39-2.52.62C277.22,72,271.19,76,267.16,76a3.75,3.75,0,0,1-4.1-4c0-5,7.77-9,14.26-11.11a16.46,16.46,0,0,0,.13-2.26,18.1,18.1,0,0,1-6,1.44c-2,0-3.77-.75-3.77-3.44,0-3.34,5.7-8.29,12.42-8.29.82.29.89.52.89.78a4.77,4.77,0,0,1-.79,2.17,1.69,1.69,0,0,1-1.35.78c-1.57,0-7,2.3-7,4.1,0,.36.46.53,1.11.53,1.81,0,5.22-1.18,6.13-3,.13-.23,0-.53,1.71-1.18a3.68,3.68,0,0,1,1.34-.3c.72,0,1,.4,1,.92v.16A38.2,38.2,0,0,1,282,59.52a18.5,18.5,0,0,1,3.18-.49c.49,0,.79.2.79.82A7,7,0,0,1,285.77,61.09ZM266.5,71.22a1.61,1.61,0,0,0,1.84,1.67c2.36,0,6.39-2.65,8.19-8.22C271.25,66.44,266.5,68.76,266.5,71.22Z"/></svg>